<?xml version="1.0" encoding="UTF-8" standalone="no"?>
<!-- Generator: Adobe Illustrator 16.0.0, SVG Export Plug-In . SVG Version: 6.00 Build 0)  -->

<svg
   xmlns:dc="http://purl.org/dc/elements/1.1/"
   xmlns:cc="http://creativecommons.org/ns#"
   xmlns:rdf="http://www.w3.org/1999/02/22-rdf-syntax-ns#"
   xmlns:svg="http://www.w3.org/2000/svg"
   xmlns="http://www.w3.org/2000/svg"
   xmlns:sodipodi="http://sodipodi.sourceforge.net/DTD/sodipodi-0.dtd"
   xmlns:inkscape="http://www.inkscape.org/namespaces/inkscape"
   version="1.1"
   id="Capa_1"
   x="0px"
   y="0px"
   width="40"
   height="40"
   viewBox="0 0 40.000002 40.000002"
   xml:space="preserve"
   inkscape:version="0.91 r13725"
   sodipodi:docname="angle-arrow-down.svg"><metadata
     id="metadata41"><rdf:RDF><cc:Work
         rdf:about=""><dc:format>image/svg+xml</dc:format><dc:type
           rdf:resource="http://purl.org/dc/dcmitype/StillImage" /><dc:title></dc:title></cc:Work></rdf:RDF></metadata><defs
     id="defs39" /><sodipodi:namedview
     pagecolor="#ffffff"
     bordercolor="#666666"
     borderopacity="1"
     objecttolerance="10"
     gridtolerance="10"
     guidetolerance="10"
     inkscape:pageopacity="0"
     inkscape:pageshadow="2"
     inkscape:window-width="1920"
     inkscape:window-height="1029"
     id="namedview37"
     showgrid="false"
     inkscape:zoom="6.6262125"
     inkscape:cx="10.268267"
     inkscape:cy="31.382004"
     inkscape:window-x="0"
     inkscape:window-y="0"
     inkscape:window-maximized="1"
     inkscape:current-layer="Capa_1" /><g
     id="g3"
     transform="matrix(-0.14038587,0,0,-0.14038587,40.000005,40.000005)"><path
       d="M 282.082,76.511 267.808,62.238 c -1.902,-1.906 -4.093,-2.856 -6.57,-2.856 -2.471,0 -4.661,0.95 -6.563,2.856 L 142.466,174.441 30.262,62.241 c -1.903,-1.906 -4.093,-2.856 -6.567,-2.856 -2.475,0 -4.665,0.95 -6.567,2.856 L 2.856,76.515 C 0.95,78.417 0,80.607 0,83.082 c 0,2.473 0.953,4.663 2.856,6.565 l 133.043,133.046 c 1.902,1.903 4.093,2.854 6.567,2.854 2.474,0 4.661,-0.951 6.562,-2.854 L 282.082,89.647 c 1.902,-1.903 2.847,-4.093 2.847,-6.565 0,-2.475 -0.945,-4.665 -2.847,-6.571 z"
       id="path5"
       inkscape:connector-curvature="0" /></g><g
     id="g7"
     transform="translate(0,-244.92899)" /><g
     id="g9"
     transform="translate(0,-244.92899)" /><g
     id="g11"
     transform="translate(0,-244.92899)" /><g
     id="g13"
     transform="translate(0,-244.92899)" /><g
     id="g15"
     transform="translate(0,-244.92899)" /><g
     id="g17"
     transform="translate(0,-244.92899)" /><g
     id="g19"
     transform="translate(0,-244.92899)" /><g
     id="g21"
     transform="translate(0,-244.92899)" /><g
     id="g23"
     transform="translate(0,-244.92899)" /><g
     id="g25"
     transform="translate(0,-244.92899)" /><g
     id="g27"
     transform="translate(0,-244.92899)" /><g
     id="g29"
     transform="translate(0,-244.92899)" /><g
     id="g31"
     transform="translate(0,-244.92899)" /><g
     id="g33"
     transform="translate(0,-244.92899)" /><g
     id="g35"
     transform="translate(0,-244.92899)" /></svg>